PathFileType	4	(X/Y/Z)	/Users/mathieubourgeois/Desktop/Analyse/Traitement/Sujet_02/Transformed_Static_Sujet_02_Tpose.trc
DataRate	CameraRate	NumFrames	NumMarkers	Units	OrigDataRate	OrigDataStartFrame	OrigNumFrames
120.000000	120.000000	5	36	mm	120.000000	192	308
Frame#	Time	RFHD			RANE			STRN			LANI			LKNE			T10			RHUM			RWRB			C7			LFWT			LTOE			RTOE			LWRA			LBWT			RBWT			RFWT			LKNI			RKNI			RKNE			LANE			RANI			LHEE			RHEE			LHUM			LRAD			RRAD			RWRA			LWRB			LFHD			LBHD			RBHD			RSHO			LSHO			CLAV			LCAR			RCAR			
		X1	Y1	Z1	X2	Y2	Z2	X3	Y3	Z3	X4	Y4	Z4	X5	Y5	Z5	X6	Y6	Z6	X7	Y7	Z7	X8	Y8	Z8	X9	Y9	Z9	X10	Y10	Z10	X11	Y11	Z11	X12	Y12	Z12	X13	Y13	Z13	X14	Y14	Z14	X15	Y15	Z15	X16	Y16	Z16	X17	Y17	Z17	X18	Y18	Z18	X19	Y19	Z19	X20	Y20	Z20	X21	Y21	Z21	X22	Y22	Z22	X23	Y23	Z23	X24	Y24	Z24	X25	Y25	Z25	X26	Y26	Z26	X27	Y27	Z27	X28	Y28	Z28	X29	Y29	Z29	X30	Y30	Z30	X31	Y31	Z31	X32	Y32	Z32	X33	Y33	Z33	X34	Y34	Z34	X35	Y35	Z35	X36	Y36	Z36	

193	1.6	-151.4041900634766	1795.29150390625	379.7052001953124	-226.0636596679688	101.9390640258789	237.395278930664	-42.00606536865239	1413.792602539062	424.3356323242186	76.78045654296872	120.409065246582	269.5076293945312	155.5209197998047	557.455810546875	244.3296203613281	-45.46709823608401	1381.817749023438	174.8363037109374	-500.2740478515626	1509.618286132812	239.0892333984374	-779.0007934570312	1589.222045898438	262.7333068847654	-47.61111068725589	1621.747680664062	225.4605560302734	89.78930664062496	1109.716674804688	405.1717834472656	172.9234008789062	59.1805114746094	457.2778625488281	-252.4802703857422	59.91405868530276	459.4598999023437	712.7437744140625	1496.203735351562	316.1037902832031	14.93350696563718	1144.260620117188	222.8142089843749	-106.3727569580078	1146.731811523438	224.7902374267578	-187.263168334961	1121.554809570312	402.0692443847656	61.81686019897457	517.27685546875	277.6456604003906	-132.3949279785157	527.5787963867188	289.9903259277343	-222.8497467041016	580.0947875976562	252.5036926269531	160.2954559326172	101.614974975586	229.6448822021485	-145.3876342773438	119.8150939941406	278.8969421386719	105.5929718017578	70.40299224853517	177.3289184570312	-161.9674682617188	64.52186584472658	186.6453857421875	430.6179199218749	1466.416870117188	322.3363037109374	438.8414001464843	1521.369873046875	275.2028503417968	-503.7532043457032	1465.5927734375	305.1182250976561	-774.2241821289062	1530.858642578125	229.9770660400389	707.4957275390625	1560.276123046875	348.9261474609375	-7.815587997436575	1795.528442382812	418.5629882812499	27.57897949218746	1746.952270507812	279.6036071777343	-131.817138671875	1745.105224609375	253.0630798339842	-212.1100616455078	1597.098388671875	261.4554443359374	122.4131088256836	1615.930908203125	286.1898803710936	-31.83713722229009	1588.757080078125	380.6634216308593	818.296142578125	1531.972778320312	309.5315856933594	-884.0628051757812	1561.570068359375	213.7187805175779	
194	1.608333333333333	-151.3555450439454	1795.272216796875	379.8812866210936	-226.0618133544922	101.9426879882813	237.3996276855468	-42.02914428710942	1413.819091796875	424.3683776855468	76.79362487792966	120.4144821166992	269.5130004882812	155.5477752685547	557.4701538085938	244.3931121826172	-45.46540832519533	1381.841918945312	174.8790893554687	-500.2821044921876	1509.69921875	239.0316162109374	-778.9913330078125	1589.359985351562	262.7856445312498	-47.62360382080081	1621.778686523438	225.5016326904296	89.79161834716793	1109.735473632812	405.2223205566406	172.9261169433593	59.16988754272464	457.2837524414062	-252.4852905273438	59.92938613891604	459.4837951660156	712.7459106445312	1496.456909179688	316.1751098632812	14.97897815704343	1144.294311523438	222.8452606201171	-106.3321609497071	1146.740844726562	224.8172149658203	-187.2419891357422	1121.57177734375	402.0905151367187	61.83116531372067	517.2866821289062	277.7291870117187	-132.3779754638672	527.5825805664062	290.0049133300781	-222.8287963867188	580.0977783203125	252.5452117919921	160.2919311523437	101.6114120483399	229.666259765625	-145.3934936523438	119.8095092773438	278.9084167480469	105.594741821289	70.41680908203126	177.3411407470703	-161.9407043457032	64.53699493408205	186.648208618164	430.6381835937499	1466.520751953125	322.3588867187499	438.8349609374999	1521.455078125	275.2467651367187	-503.7799072265626	1465.611083984375	305.0734558105467	-774.2313842773438	1531.054321289062	230.0010375976561	707.4708862304688	1560.484741210938	349.0481567382812	-7.820388793945364	1795.511596679688	418.7036132812499	27.58566665649411	1746.953857421875	279.6872253417968	-131.8179168701172	1745.142333984375	253.163848876953	-212.1110382080078	1597.10205078125	261.459747314453	122.3928756713867	1615.94921875	286.2263183593749	-31.85542297363286	1588.767822265625	380.7152709960936	818.2667846679688	1532.212036132812	309.6719055175781	-884.0737915039062	1561.779663085938	213.7868194580076	
195	1.616666666666667	-151.330795288086	1795.268798828125	380.0254821777343	-226.0516510009766	101.9532241821289	237.406494140625	-42.04413223266607	1413.833740234375	424.4072265624999	76.80087280273435	120.4488830566406	269.5188293457031	155.5650787353515	557.4751586914062	244.4393310546875	-45.44026184082033	1381.859497070312	174.9187469482421	-500.2899780273438	1509.765502929688	239.0188903808592	-778.9768676757812	1589.508056640625	262.8339843749998	-47.65180587768558	1621.79443359375	225.5453796386718	89.79535675048824	1109.754516601562	405.2803649902343	172.924331665039	59.17100524902347	457.284912109375	-252.4789428710938	59.93059921264651	459.4770507812499	712.7658081054688	1496.667114257812	316.26953125	15.00581359863279	1144.293090820312	222.9138488769531	-106.2874984741211	1146.749755859375	224.8210449218749	-187.2342681884766	1121.584838867188	402.1202392578124	61.86516952514645	517.3032836914062	277.7873229980468	-132.373291015625	527.5816650390625	290.0533142089843	-222.6894073486328	580.1655883789062	252.4403686523437	160.2946319580078	101.6374130249024	229.67333984375	-145.3851470947266	119.8196411132813	278.9053039550781	105.5984649658203	70.4195022583008	177.3475494384766	-161.95166015625	64.55406188964845	186.6510772705078	430.6565551757812	1466.603637695312	322.3868408203124	438.8479919433593	1521.557983398438	275.2905273437499	-503.7967834472657	1465.637451171875	305.0390624999998	-774.2498779296875	1531.2021484375	230.0165710449217	707.4472045898438	1560.680908203125	349.1760559082031	-7.84068012237554	1795.467651367188	418.8282470703124	27.35406684875485	1747.282104492188	279.3554077148436	-131.7849884033203	1745.197631835938	253.2647857666014	-212.1045684814453	1597.116455078125	261.4845886230468	122.3697433471679	1615.971435546875	286.2636108398436	-31.86816024780278	1588.7880859375	380.7718505859374	818.2669677734375	1532.44140625	309.8146362304688	-884.1198120117188	1561.970581054688	213.8539428710936	
196	1.625	-151.3144836425782	1795.26904296875	380.1449584960936	-226.038314819336	101.9718475341797	237.4167785644531	-42.05970382690435	1413.853271484375	424.4527587890624	76.792366027832	120.4557876586914	269.5336303710938	155.5825042724609	557.4728393554688	244.5183715820312	-45.43407821655276	1381.881469726562	174.9481353759765	-500.3053588867188	1509.820190429688	239.0017242431639	-778.961181640625	1589.652709960938	262.8830261230466	-47.63220977783206	1621.808349609375	225.5555114746093	89.80823516845699	1109.756469726562	405.3517761230468	172.9375762939453	59.17872238159183	457.2797241210938	-252.4698791503907	59.94389724731448	459.4827880859374	712.758056640625	1496.87841796875	316.4024963378906	15.06021785736081	1144.301391601562	222.9586181640624	-106.2604751586914	1146.768676757812	224.857681274414	-187.215316772461	1121.588134765625	402.1446838378906	61.87861633300778	517.3082275390625	277.8495788574218	-132.3573608398438	527.583251953125	290.0760192871093	-222.780029296875	580.1113891601562	252.5945281982421	160.3049011230468	101.6472473144531	229.6694946289063	-145.3696899414063	119.8198928833008	278.9173583984375	105.6216354370117	70.45333862304689	177.3475189208984	-161.9312744140625	64.57988739013673	186.6492462158203	430.6747436523437	1466.708984375	322.4137573242187	438.8433532714843	1521.64794921875	275.3339843749999	-503.8122558593751	1465.6650390625	305.0028381347655	-774.2470092773438	1531.338134765625	230.0372009277342	707.4139404296875	1560.860473632812	349.3098754882812	-7.859395027160696	1795.455322265625	418.9802246093749	28.51812744140621	1747.290649414062	280.175323486328	-131.7884368896485	1745.245239257812	253.3710784912108	-212.1108093261719	1597.11962890625	261.4931335449218	122.3497619628906	1616.003295898438	286.3043212890624	-31.89120674133305	1588.790283203125	380.808135986328	818.2508544921875	1532.693603515625	309.9136047363281	-884.1192626953125	1562.165283203125	213.9216003417967	
197	1.633333333333333	-151.3344726562501	1795.264892578125	380.265655517578	-226.0237884521485	101.991096496582	237.4218292236328	-42.07609176635747	1413.866943359375	424.5105590820311	76.80867004394528	120.4829864501953	269.542724609375	155.6304016113281	557.4913330078125	244.5967407226562	-45.40552902221682	1381.876953125	174.9716796874999	-500.3094482421876	1509.875	238.998092651367	-778.961181640625	1589.80078125	262.955871582031	-47.63484954833987	1621.831298828125	225.5766448974609	89.81839752197261	1109.748901367188	405.4182434082031	172.9536590576171	59.1689262390137	457.28125	-252.4620666503907	59.9308776855469	459.4866333007812	712.7603149414062	1497.056030273438	316.4877624511719	15.08767223358152	1144.306640625	223.0494079589843	-106.2346649169922	1146.769409179688	224.8976898193359	-187.2225036621094	1121.594970703125	402.1845397949218	61.89730453491207	517.304931640625	277.9106140136718	-132.3444366455078	527.5830078125	290.1067504882812	-222.7692260742188	580.1371459960938	252.6169738769531	160.298599243164	101.6516418457031	229.6830596923828	-145.3694763183594	119.811264038086	278.9207153320312	105.6359100341797	70.47582244873048	177.3480377197266	-161.9053802490235	64.60336303710939	186.654067993164	430.6795959472656	1466.792602539062	322.4492187499999	438.8481140136718	1521.732666015625	275.3844604492187	-503.8322143554688	1465.701538085938	304.9815673828123	-774.2628784179688	1531.437377929688	230.0839080810545	707.3751220703125	1561.01708984375	349.4758911132812	-7.883876323700003	1795.406372070312	419.1233825683593	28.57240295410153	1747.687377929688	280.2605590820311	-131.7816467285157	1745.283081054688	253.4497985839842	-212.1241607666016	1597.109130859375	261.512725830078	122.3303070068359	1616.008666992188	286.3268127441405	-31.91303825378423	1588.797485351562	380.8320312499999	818.2484130859375	1532.923583984375	310.0582275390625	-884.1650390625	1562.325927734375	214.0359191894529	
